<?xml version="1.0" encoding="UTF-8" standalone="no"?>
<!-- Created with Inkscape (http://www.inkscape.org/) -->

<svg
   width="118.03663mm"
   height="91.497017mm"
   viewBox="0 0 118.03663 91.497017"
   version="1.1"
   id="svg1"
   xml:space="preserve"
   sodipodi:docname="logo.svg"
   inkscape:version="1.4.3 (0d15f75042, 2025-12-25)"
   inkscape:export-filename="logo.png"
   inkscape:export-xdpi="96"
   inkscape:export-ydpi="96"
   xmlns:inkscape="http://www.inkscape.org/namespaces/inkscape"
   xmlns:sodipodi="http://sodipodi.sourceforge.net/DTD/sodipodi-0.dtd"
   xmlns="http://www.w3.org/2000/svg"
   xmlns:svg="http://www.w3.org/2000/svg"><sodipodi:namedview
     id="namedview1"
     pagecolor="#ffffff"
     bordercolor="#000000"
     borderopacity="0.25"
     inkscape:showpageshadow="2"
     inkscape:pageopacity="0.0"
     inkscape:pagecheckerboard="0"
     inkscape:deskcolor="#d1d1d1"
     inkscape:document-units="mm"
     inkscape:zoom="1.2056007"
     inkscape:cx="137.6907"
     inkscape:cy="233.90829"
     inkscape:window-width="1858"
     inkscape:window-height="1089"
     inkscape:window-x="0"
     inkscape:window-y="0"
     inkscape:window-maximized="1"
     inkscape:current-layer="layer1" /><defs
     id="defs1" /><g
     inkscape:label="Layer 1"
     inkscape:groupmode="layer"
     id="layer1"
     transform="translate(-53.374389,-67.046091)"><path
       style="fill:#684564;fill-opacity:1;stroke-width:0.506938"
       d="m 97.896619,130.64131 c 0.11088,-0.0634 1.89512,-0.51524 3.964961,-1.00393 5.5535,-1.3112 6.01146,-1.49146 6.56811,-2.58543 0.72013,-1.41523 0.95893,-2.5126 0.95426,-4.38503 -0.005,-1.57267 -0.0395,-1.82848 -0.36964,-2.65951 -0.97883,-2.46388 -2.53029,-4.03172 -6.07747,-6.14174 l -0.80644,-0.4797 -0.73924,0.19664 c -1.02528,0.27276 -2.638811,0.26364 -3.741321,-0.0212 -0.876674,-0.22644 -0.948795,-0.22654 -1.579177,-0.003 -0.989174,0.35158 -3.136368,0.42431 -4.222286,0.14303 -2.440995,-0.63229 -4.217247,-2.43792 -4.533283,-4.60827 l -0.103713,-0.71204 -0.757677,-0.23334 c -1.90106,-0.58547 -3.05336,-2.07672 -3.066978,-3.96916 -0.0054,-0.75114 -0.04623,-0.86314 -0.487817,-1.33849 -0.265054,-0.28533 -0.642222,-0.81993 -0.838149,-1.188 -0.304045,-0.57122 -0.356508,-0.83594 -0.358117,-1.806977 -0.0016,-1.04852 0.03523,-1.20634 0.471489,-2.01282 l 0.473374,-0.87509 -0.438615,-0.57269 c -1.248909,-1.63066 -1.076801,-4.46299 0.363123,-5.97581 0.371911,-0.39074 0.378472,-0.42265 0.243684,-1.18534 -0.110729,-0.626589 -0.0949,-0.95982 0.07899,-1.661543 0.219104,-0.884193 0.856452,-2.040597 1.292181,-2.344536 0.189709,-0.132326 0.246682,-0.423287 0.294084,-1.501842 0.04953,-1.127079 0.117016,-1.450266 0.428575,-2.052501 0.510206,-0.98622 1.327116,-1.828216 2.149753,-2.215776 l 0.692741,-0.326364 0.16209,-1.014535 c 0.363812,-2.277126 1.748337,-3.831038 3.884716,-4.359986 0.427941,-0.105956 0.593718,-0.229886 0.722879,-0.540415 0.387535,-0.931727 2.179658,-2.138439 3.175857,-2.138439 0.197533,0 0.607786,-0.300341 1.152107,-0.843449 0.464928,-0.463896 1.128399,-0.979207 1.474369,-1.145134 0.86317,-0.413979 2.187841,-0.6042 3.081321,-0.442476 0.6928,0.125402 0.72771,0.116512 1.26575,-0.322556 1.46329,-1.19409 3.5369,-1.579119 5.42639,-1.007574 1.71598,0.519055 3.2073,1.936356 3.94299,3.74731 l 0.30472,0.750053 0.035,29.48039 0.0351,29.48039 -7.36019,-0.005 c -4.19043,-0.003 -7.273351,-0.0537 -7.158571,-0.11946 z m 9.811611,-17.05946 c 0,-0.0276 -0.2156,-0.52453 -0.47911,-1.10425 -0.35909,-0.79003 -0.70325,-1.28034 -1.37404,-1.95754 l -0.89496,-0.90347 h -4.95727 -4.957262 l -0.260662,0.33 c -0.493404,0.62468 -1.530588,0.7108 -2.280376,0.18934 -0.797151,-0.55438 -0.867127,-1.89992 -0.132799,-2.55339 0.583142,-0.51892 1.214476,-0.60233 1.93394,-0.25547 0.373288,0.17996 0.847072,0.28177 1.311263,0.28177 h 0.726792 l -0.933625,-0.93696 -0.933634,-0.93695 h -1.864542 c -2.076137,0 -2.354419,0.0841 -2.899404,0.87616 -0.857659,1.2465 -0.49782,3.19297 0.776009,4.1977 0.917764,0.72388 1.700703,0.99444 3.039894,1.05052 1.00705,0.0422 1.396282,-0.006 2.324,-0.28752 l 1.114349,-0.33818 0.834536,0.26055 c 1.41612,0.44215 2.638801,0.33095 3.724241,-0.33869 l 0.47042,-0.29021 2.7553,1.36107 c 2.73162,1.34936 2.95694,1.45264 2.95694,1.35552 z m 2.6881,-6.22565 v -4.8035 l -0.94083,-0.75702 -0.94084,-0.75703 9.1e-4,4.5232 9.1e-4,4.5232 0.89623,1.03734 c 0.49291,0.57054 0.91575,1.03733 0.93962,1.03733 0.0238,0 0.0434,-2.16158 0.0434,-4.80352 z m -16.657441,1.85412 c 0.520773,-0.27756 0.161194,-1.0465 -0.405605,-0.86735 -0.307841,0.0973 -0.373809,0.58653 -0.113968,0.84529 0.195545,0.19474 0.195575,0.19474 0.519576,0.022 z m 12.759681,-3.05626 v -1.72248 l -1.37766,-1.24231 c -0.75771,-0.68327 -2.31866,-2.13123 -3.46879,-3.217667 l -2.091151,-1.97538 0.0493,-6.47053 c 0.0271,-3.558789 3.9e-4,-6.532103 -0.0593,-6.607364 -0.17711,-0.223158 -1.6086,-1.40244 -1.70236,-1.40244 -0.0475,0 -0.0863,3.649203 -0.0863,8.109324 v 8.10933 l 0.50088,0.423587 c 0.73233,0.61935 2.033161,1.84097 5.271441,4.95044 1.58545,1.52239 2.90094,2.76796 2.92333,2.76796 0.0224,0 0.0408,-0.77512 0.0408,-1.72247 z m -6.02057,-1.21874 -2.782986,-2.67353 -1.724966,-0.004 -1.724965,-0.004 0.448111,0.56818 c 0.246465,0.3125 1.378979,1.51715 2.516697,2.677 l 2.068588,2.1088 h 1.991251 1.99125 z m -12.758884,1.00628 c 0.319256,-0.66672 1.135019,-1.51975 1.767993,-1.84877 0.42279,-0.21976 0.859208,-0.29689 1.924447,-0.34011 0.757711,-0.0307 1.377657,-0.0921 1.377657,-0.13651 0,-0.0442 -0.285018,-0.36878 -0.633376,-0.72098 l -0.633372,-0.64039 h -1.73298 c -1.689592,0 -1.739615,0.008 -1.997956,0.33547 -0.369758,0.46813 -0.7264,0.63076 -1.584866,0.72271 l -0.74255,0.0795 -0.04295,0.52265 c -0.05843,0.71106 0.04561,1.05354 0.474171,1.56076 0.299448,0.3544 1.221724,0.91348 1.52637,0.92528 0.04175,9.1e-4 0.175588,-0.20523 0.297415,-0.45964 z m -2.994233,-4.63651 c 0,-0.52711 0.334711,-1.09383 0.811787,-1.374467 0.528759,-0.31105 1.484755,-0.2858 1.845359,0.0489 0.256735,0.238177 0.474316,0.267697 1.974223,0.267697 h 1.68569 v -1.070807 -1.0708 h -1.420225 c -1.333085,0 -1.449187,0.0219 -1.89224,0.35854 -0.716008,0.54387 -1.590372,0.51882 -2.322058,-0.0665 -0.63235,-0.50586 -0.879239,-0.50692 -1.254904,-0.005 -0.554131,0.73984 -0.530878,2.134647 0.0491,2.945777 0.353234,0.49403 0.523262,0.48334 0.523262,-0.0328 z m 1.939012,0.20429 c 0.162121,-0.16146 0.177791,-0.27177 0.06771,-0.47661 -0.176234,-0.32793 -0.707158,-0.28764 -0.773465,0.0586 -0.111413,0.58194 0.297754,0.82421 0.705755,0.4179 z m 19.834675,-0.97367 v -1.183727 l -1.35783,-1.11736 c -0.74681,-0.61455 -1.44546,-1.25055 -1.55256,-1.41334 -0.16143,-0.24534 -0.19131,-1.07116 -0.17464,-4.82641 0.0108,-2.49173 0.0491,-4.696055 0.0848,-4.898502 0.0632,-0.359884 0.0854,-0.368084 0.99484,-0.368084 h 0.93016 v 4.566156 4.56618 l 0.57122,0.51462 c 0.31417,0.28305 0.61659,0.5171 0.67202,0.52012 0.0554,0.003 0.10076,-0.50502 0.10076,-1.12899 0,-0.89819 -0.0559,-1.22577 -0.26829,-1.57274 -0.81161,-1.32563 0.38174,-2.91499 1.88584,-2.51166 1.27264,0.34127 1.61154,1.80221 0.66727,2.87651 -0.18791,0.2138 -0.25348,0.63457 -0.3256,2.08938 l -0.0903,1.82169 0.79747,0.688 c 0.43862,0.37839 0.83462,0.688 0.88002,0.688 0.0454,0 0.0825,-2.40504 0.0825,-5.34452 v -5.34453 L 109.866,88.361491 c -0.29164,-0.437258 -1.03184,-1.254652 -1.64491,-1.816437 l -1.11464,-1.021414 h -1.44009 c -1.48082,0 -1.96336,-0.113417 -2.21936,-0.521623 -0.0945,-0.150794 -0.18281,-1.968139 -0.24652,-5.076763 l -0.0992,-4.841896 h 0.4497 c 0.33729,0 0.57714,-0.123907 0.9594,-0.495633 l 0.50969,-0.49564 v -2.114432 -2.11443 h 1.00805 1.00803 v 1.529928 1.529928 l 0.43595,-0.124506 c 0.23974,-0.06847 1.00058,-0.124507 1.69073,-0.124507 h 1.25482 l -0.091,-0.435011 c -0.35253,-1.684174 -1.87591,-3.00663 -3.62251,-3.144716 -1.5671,-0.123896 -2.94306,0.570866 -3.61923,1.827436 -0.33026,0.613751 -0.40185,0.930768 -0.47042,2.082994 l -0.0808,1.35907 -0.97444,-0.446593 -0.97444,-0.44659 0.006,-0.565607 c 0.006,-0.544356 0.11706,-1.227456 0.32706,-2.00449 0.0885,-0.327645 0.0636,-0.368087 -0.22674,-0.368087 -0.66546,0 -1.663371,0.398534 -2.085511,0.832892 -0.81594,0.839554 -0.84318,1.017136 -0.84318,5.496649 v 4.062699 l 0.86872,0.693266 c 0.4778,0.381298 0.90023,0.693265 0.93876,0.693265 0.0385,0 0.0318,-1.039005 -0.0147,-2.308906 l -0.0848,-2.308907 -0.45074,-0.502322 c -0.37286,-0.415536 -0.45073,-0.608629 -0.45073,-1.117644 0,-0.519183 0.0702,-0.685195 0.44905,-1.062523 0.79683,-0.793536 1.790381,-0.787851 2.497601,0.01432 0.44977,0.510133 0.55024,1.218964 0.26207,1.848821 -0.3639,0.795412 -0.24091,11.293107 -0.24091,11.293107 l 0.0108,9.068314 2.44179,2.23722 c 1.343,1.230477 2.45692,2.239357 2.4754,2.241977 0.0185,0.003 0.0337,-0.52793 0.0337,-1.17897 z M 95.83084,99.945933 c -0.04459,-0.16563 -0.0819,-0.6475 -0.0829,-1.07079 l -0.0018,-0.76965 h -1.321647 c -0.72691,0 -1.346854,0.0248 -1.377653,0.0551 -0.03078,0.0303 -0.03612,0.51222 -0.01176,1.07081 l 0.04425,1.015607 h 1.416321 c 1.403186,0 1.415562,-0.004 1.33527,-0.301157 z m -8.816465,-2.51823 c 0.110201,-0.20506 0.107179,-0.3258 -0.01176,-0.46848 -0.241528,-0.28982 -0.765841,-0.24038 -0.868554,0.0819 -0.183975,0.57726 0.594165,0.91898 0.880282,0.38657 z m 4.027567,-1.70829 c 0,-0.46977 -0.08416,-0.58617 -1.016242,-1.40542 l -1.016243,-0.89323 h -1.550529 -1.550533 l -0.909451,-0.87436 -0.909451,-0.87438 -0.197679,0.30552 c -0.777547,1.20169 -0.645461,2.68292 0.328625,3.68521 0.459919,0.47323 1.026397,0.5756 1.308968,0.23652 0.435555,-0.52264 1.720296,-0.48481 2.220282,0.0653 0.215205,0.23682 0.414713,0.26695 1.767418,0.26695 h 1.524835 z m 4.704192,-0.74742 v -1.25962 l -2.130494,-1.98624 c -2.167057,-2.02032 -2.439294,-2.34727 -2.439294,-2.929476 0,-0.416884 -0.400813,-0.43762 -1.228572,-0.06357 -1.091338,0.493156 -2.169564,0.238426 -2.768241,-0.654011 -0.179514,-0.267594 -0.613697,-0.610733 -1.05028,-0.830035 l -0.744259,-0.373863 -0.258361,0.423085 c -0.75939,1.243553 -0.361915,2.56664 1.122382,3.73608 l 0.650494,0.51253 h 1.519645 1.51965 l 1.439265,1.29968 c 0.791594,0.71483 1.493417,1.44154 1.559609,1.61491 0.0662,0.17337 0.120347,0.64259 0.120347,1.04268 v 0.72747 h 1.344057 1.344052 z m 12.607016,-1.62986 c 0.0221,-0.15368 -0.0528,-0.35617 -0.1663,-0.44999 -0.40971,-0.33862 -0.94626,0.19569 -0.60622,0.60371 0.23835,0.28602 0.72326,0.18952 0.77252,-0.15372 z M 95.746134,86.267402 c 0,-4.305749 -0.0101,-4.483433 -0.265449,-4.661536 -0.701993,-0.489659 -3.214513,-2.837155 -3.347348,-3.127484 -0.0828,-0.180992 -0.150558,-0.804545 -0.150558,-1.385674 0,-0.58113 -0.0587,-1.092735 -0.130457,-1.136894 -0.212329,-0.130686 -0.904144,0.296992 -1.285182,0.794493 -0.877896,1.146217 -0.987972,3.3677 -0.211796,4.274116 0.118898,0.138847 0.80588,0.759531 1.52663,1.379296 l 1.310455,1.126846 0.0056,2.569271 0.0057,2.569265 1.17034,1.031582 c 0.643687,0.56737 1.2157,1.03417 1.271139,1.03733 0.05542,0.003 0.100814,-2.00861 0.100814,-4.470611 z m -6.744952,0.628192 c -0.05528,-0.478551 -0.706521,-0.61424 -0.846096,-0.176292 -0.123276,0.386798 0.01696,0.544381 0.484413,0.544381 0.361668,0 0.399737,-0.03875 0.361683,-0.368089 z m 2.175164,-1.363537 v -1.062381 l -1.374842,-1.1796 c -0.756168,-0.648783 -1.544861,-1.354199 -1.752662,-1.567592 l -0.377816,-0.387986 -0.391627,0.373649 c -0.596857,0.569458 -0.807244,1.134046 -0.807244,2.166276 0,0.962406 0.173416,1.383468 0.68126,1.654133 0.198981,0.106052 0.337473,0.08978 0.560635,-0.06589 0.163921,-0.11434 0.575251,-0.206732 0.920375,-0.206732 0.703285,0 1.209196,0.311678 1.540014,0.948764 0.154682,0.297882 0.29659,0.389731 0.602141,0.389731 h 0.399766 z M 110.39633,80.102725 V 74.68181 h -1.52362 -1.52361 l -0.87524,0.903486 c -0.4814,0.49692 -0.97518,1.096251 -1.0973,1.331853 -0.24703,0.476588 -0.29031,2.07991 -0.13418,4.971529 l 0.0879,1.627211 h 0.71857 0.71858 v -1.618545 c 0,-1.41587 -0.0337,-1.661161 -0.26881,-1.958872 -0.17766,-0.224912 -0.26882,-0.543 -0.26882,-0.937983 0,-0.501219 0.0738,-0.671086 0.45698,-1.052744 0.25134,-0.250298 0.59912,-0.461754 0.77283,-0.469904 1.02549,-0.0481 1.51556,0.199815 1.8175,0.919421 0.23487,0.559797 0.16122,1.09867 -0.22369,1.637001 -0.23972,0.335267 -0.26991,0.589466 -0.26991,2.272765 v 1.895281 l 0.70563,0.65556 c 0.38809,0.360558 0.75098,0.657859 0.80643,0.660666 0.0554,0.003 0.10075,-2.43431 0.10075,-5.41581 z M 95.693998,73.112926 c -0.103153,-0.102718 -0.813473,0.331924 -1.193768,0.730448 -0.534387,0.56002 -0.654746,1.1198 -0.554382,2.578485 l 0.08748,1.271571 0.822797,0.765617 0.822801,0.765616 0.03613,-3.027342 c 0.01993,-1.665042 0.01047,-3.053017 -0.02111,-3.084395 z m 4.998022,3.096444 c 0.0516,-0.359787 -0.28542,-0.637313 -0.63847,-0.525724 -0.270851,0.08562 -0.384441,0.584869 -0.179481,0.788973 0.203571,0.202721 0.777601,0.01796 0.817951,-0.263249 z m 13.19987,25.67739 c 5e-4,-19.277307 0.0474,-29.167316 0.14033,-29.748093 0.39145,-2.444542 2.2403,-4.444607 4.58183,-4.956586 1.20982,-0.264529 2.72947,-0.118477 3.75466,0.36085 0.47483,0.222013 1.06625,0.574507 1.31421,0.78332 0.43697,0.367957 0.49912,0.379965 2.01608,0.389456 1.43298,0.009 1.63023,0.04158 2.33461,0.38605 0.46631,0.228037 1.02224,0.657301 1.41126,1.089706 0.56178,0.624438 0.7495,0.74069 1.50451,0.931777 0.47446,0.120079 1.05831,0.338758 1.29746,0.48595 0.5096,0.313641 1.35229,1.212118 1.55745,1.660536 0.10231,0.223702 0.39393,0.395465 1.01725,0.599242 2.09067,0.68348 3.42827,2.284927 3.62047,4.334645 0.081,0.863335 0.0864,0.873184 0.62868,1.116664 0.80748,0.362616 1.91998,1.511818 2.33713,2.414212 0.28617,0.61905 0.37107,1.035003 0.41654,2.040719 0.0552,1.218422 0.0725,1.277718 0.49166,1.67312 0.89166,0.841146 1.36603,2.413057 1.1632,3.854535 -0.098,0.69677 -0.0803,0.79358 0.19275,1.04898 0.1654,0.15475 0.49267,0.63995 0.72723,1.07823 0.79207,1.47993 0.67686,3.50216 -0.27831,4.88471 -0.2156,0.31206 -0.39199,0.61076 -0.39199,0.66377 0,0.0531 0.15036,0.40357 0.33413,0.77898 0.89724,1.83295 0.61366,3.823397 -0.72537,5.091217 -0.38678,0.36622 -0.41541,0.45785 -0.41815,1.33849 -0.003,0.65819 -0.0859,1.12834 -0.27596,1.54769 -0.50709,1.11876 -1.85169,2.21299 -3.03124,2.46679 -0.38388,0.0826 -0.42798,0.14702 -0.50707,0.74073 -0.19851,1.49028 -1.6142,3.43251 -3.02161,4.14544 -1.59017,0.8055 -3.62833,1.01969 -5.59925,0.58841 -0.89977,-0.1969 -1.12803,-0.2018 -1.91909,-0.0412 -1.10904,0.22514 -2.49647,0.22743 -3.67327,0.006 l -0.89376,-0.16815 -1.59275,1.01037 c -2.8907,1.83374 -3.66219,2.57937 -4.59362,4.43947 -0.80426,1.60619 -1.00746,2.53057 -0.92606,4.21259 0.0521,1.07739 0.16658,1.70899 0.49032,2.7061 0.72432,2.23084 0.89681,2.32855 6.46074,3.66018 5.63687,1.34907 5.87363,1.2347 -2.58731,1.24991 l -7.35871,0.0133 z m 5.26672,11.48524 c 0.98347,-0.57545 4.30766,-2.01527 4.64932,-2.01379 0.20072,9.1e-4 0.69762,0.0905 1.1042,0.19919 0.95404,0.25502 2.73225,0.25574 3.57399,0.003 0.8632,-0.26077 1.16269,-0.25156 2.18382,0.0672 2.3859,0.74481 4.95625,-0.0603 5.98761,-1.87561 0.36051,-0.63451 0.41827,-0.86877 0.41827,-1.6963 0,-1.02483 -0.18117,-1.42296 -0.88601,-1.94702 -0.31,-0.23051 -0.69304,-0.24633 -5.83815,-0.24144 l -5.50639,0.005 -0.87256,0.86895 -0.87257,0.86896 h 4.26288 c 4.02366,0 4.28758,-0.015 4.70295,-0.26719 1.68728,-1.0245 3.45892,1.09411 2.14217,2.56171 -0.63931,0.71255 -2.0272,0.65266 -2.48162,-0.10711 -0.087,-0.14533 -1.0763,-0.1794 -5.17461,-0.1782 l -5.06712,0.003 -0.98884,0.89258 c -0.80862,0.7299 -1.07194,1.07421 -1.44485,1.88913 -0.6178,1.35006 -0.61312,1.39237 0.10747,0.97073 z m -1.70104,-2.90039 0.33469,-0.41654 -0.0354,-4.50862 -0.0354,-4.50862 -0.90725,0.7453 -0.90723,0.7453 0.003,4.84911 0.003,4.84911 0.6052,-0.66925 c 0.33286,-0.36809 0.7558,-0.85669 0.93989,-1.08579 z m 15.91674,-1.45092 c 0.27989,-0.33585 0.11359,-0.67569 -0.33065,-0.67569 -0.27771,0 -0.41373,0.0734 -0.44607,0.24068 -0.0534,0.27595 0.1971,0.62935 0.44607,0.62935 0.0928,0 0.24157,-0.0875 0.33065,-0.19434 z m -10.95329,-3.52713 c 1.33314,-1.31063 3.25554,-3.16785 4.27197,-4.12714 l 1.84808,-1.744187 V 86.156866 c 0,-9.188445 -0.0453,-13.585053 -0.14295,-13.842172 -0.31737,-0.836522 -1.38616,-1.595938 -2.35497,-1.673286 -0.52497,-0.04192 -0.52612,-0.04091 -0.49398,0.426463 0.13896,2.020362 0.18887,3.65227 0.12007,3.925233 -0.0725,0.287794 -0.19262,0.34151 -1.04525,0.467536 -0.52995,0.07834 -1.05973,0.238295 -1.17762,0.35557 -0.18419,0.183217 -0.22417,0.819317 -0.28439,4.525295 -0.0386,2.371661 -0.12148,4.419745 -0.18429,4.551296 -0.22768,0.47681 -0.80378,0.630839 -2.35946,0.630839 h -1.48473 l -1.01307,0.958335 c -0.55719,0.527085 -1.28317,1.343108 -1.61326,1.813382 l -0.60022,0.855046 v 5.34757 c 0,2.94117 0.0372,5.34758 0.0825,5.34758 0.0454,0 0.43167,-0.3012 0.85838,-0.66932 l 0.7758,-0.66931 -0.071,-2.04114 c -0.0659,-1.89384 -0.0939,-2.06845 -0.38794,-2.4195 -0.58982,-0.70415 -0.32895,-2.01099 0.48512,-2.43022 1.62092,-0.83475 3.26338,1.10707 2.13971,2.52969 -0.20389,0.25812 -0.25364,0.54672 -0.25364,1.47118 0,0.71995 0.0532,1.15008 0.14229,1.15008 0.0782,0 0.38066,-0.19079 0.67202,-0.42396 l 0.52974,-0.42395 v -4.60127 -4.601278 l 0.97444,0.03931 0.97444,0.03931 0.0351,4.964978 0.0353,4.96498 -0.90885,0.7937 c -0.49988,0.43655 -1.2264,1.05389 -1.61449,1.37188 l -0.70563,0.57819 0.01,0.891007 c 0.0169,1.59701 -0.0713,1.62755 2.64924,-0.917677 l 2.44871,-2.29099 v -8.700528 -8.700534 l -0.36961,-0.482809 c -0.52281,-0.682924 -0.50913,-1.612176 0.032,-2.174673 0.78645,-0.817485 1.85153,-0.81015 2.55089,0.01754 0.44428,0.52581 0.47515,1.514155 0.0636,2.035225 -0.27288,0.345466 -0.27721,0.483194 -0.30242,9.605977 l -0.0256,9.255492 -1.61287,1.5244 c -0.88708,0.838417 -2.44425,2.291107 -3.46037,3.228177 l -1.8475,1.70378 -5.2e-4,1.70659 c -3.1e-4,0.93861 0.0427,1.70658 0.0956,1.70658 0.0529,0 1.18694,-1.07235 2.52009,-2.38298 z m 17.26974,0.5121 c 0.90175,-0.45812 1.40187,-1.52127 1.16246,-2.47116 -0.0768,-0.30463 -0.15403,-0.34271 -0.69531,-0.34271 -0.98742,0 -1.47467,-0.36362 -1.73551,-1.29521 -0.0449,-0.16023 0.005,-0.49646 0.10962,-0.74716 0.56632,-1.349797 2.25095,-1.389497 2.92742,-0.069 l 0.28694,0.56012 0.3146,-0.36424 c 0.65625,-0.75976 0.69388,-2.079217 0.0825,-2.892447 -0.245,-0.3259 -0.31508,-0.34252 -1.24892,-0.29625 -0.76674,0.038 -1.09542,0.1208 -1.46083,0.36808 -1.56102,1.05634 -3.39509,-0.60879 -2.42174,-2.19867 0.50827,-0.83021 1.57938,-1.02012 2.41431,-0.42805 0.28926,0.20511 0.59327,0.26879 1.28328,0.26879 0.86417,0 0.92443,-0.0214 1.36084,-0.48216 0.89074,-0.94056 1.08991,-2.07501 0.54955,-3.13019 -0.16632,-0.32479 -0.37039,-0.6111 -0.4535,-0.63623 -0.0831,-0.0251 -0.48841,0.26133 -0.90069,0.63657 -0.89727,0.81668 -1.25892,0.93501 -2.85738,0.93501 h -1.22284 l -0.82774,0.85844 -0.82774,0.85844 v 2.05221 2.05222 l 1.13456,1.071367 c 1.02273,0.96578 1.1424,1.13075 1.21416,1.67372 0.0438,0.33128 0.0265,1.02019 -0.0383,1.53094 l -0.11791,0.92863 0.60754,0.91181 c 0.33416,0.50149 0.65978,0.9118 0.72361,0.9118 0.0638,0 0.35047,-0.11911 0.637,-0.26467 z m -3.84138,-2.5629 c 0.17766,-0.8847 0.11178,-1.04767 -0.7484,-1.85028 l -0.83239,-0.77671 -0.78746,0.65261 -0.78745,0.65262 -1.97549,0.004 -1.97551,0.004 -0.94084,0.86116 -0.94083,0.86116 4.45217,0.005 4.45219,0.005 z m -3.16317,-3.961047 c 0.41837,-0.34736 0.78602,-0.64867 0.817,-0.6696 0.031,-0.021 0.0471,-0.98672 0.0361,-2.14622 -0.024,-2.48276 -0.11274,-2.27395 1.69316,-3.97962 l 1.24788,-1.17861 1.60327,-0.0808 1.6033,-0.0808 0.68751,-0.66925 c 0.87572,-0.85243 1.10806,-1.30149 1.10806,-2.141589 0,-0.63893 -0.32423,-1.539271 -0.55433,-1.539271 -0.0582,0 -0.28345,0.186213 -0.50056,0.413808 -0.21712,0.227594 -0.63391,0.536247 -0.92619,0.685893 -0.29229,0.149647 -0.6433,0.41372 -0.78004,0.586834 -0.5851,0.740765 -1.85839,0.657305 -2.50975,-0.164506 -0.45382,-0.572587 -0.33737,-1.565343 0.24432,-2.082938 0.45866,-0.408115 1.25913,-0.510426 1.78804,-0.228535 0.64528,0.343919 1.58724,-0.994238 1.58724,-2.254831 0,-0.863531 -0.27312,-1.558182 -0.84683,-2.15382 -0.61015,-0.633434 -1.04991,-0.825141 -1.89287,-0.825141 h -0.73697 l 0.0246,-1.57273 c 0.022,-1.407424 -0.007,-1.63272 -0.28139,-2.14339 -0.3017,-0.562634 -1.24217,-1.370169 -1.59573,-1.370169 -0.13071,0 -0.18144,0.209518 -0.18144,0.749408 0,0.412173 -0.0915,0.939208 -0.20324,1.171188 -0.11179,0.231974 -0.95854,1.107177 -1.88168,1.944888 l -1.67844,1.523115 v 1.931416 c 0,1.507943 0.0369,1.910019 0.16802,1.833832 0.0924,-0.05366 0.63675,-0.488264 1.20964,-0.965768 0.9424,-0.785457 1.04184,-0.914008 1.04362,-1.349194 0.003,-0.644194 0.24203,-1.077315 0.80642,-1.459236 1.32339,-0.895514 2.94416,0.464568 2.3414,1.964801 -0.11862,0.295221 -0.36174,0.632088 -0.54028,0.748589 -0.32411,0.211487 -0.32462,0.215686 -0.32424,2.718412 l 3.9e-4,2.506594 -2.35243,2.27544 -2.35245,2.27545 -0.0336,3.17906 -0.0337,3.179057 0.71779,-1.3e-4 c 0.65848,-1.3e-4 0.78066,-0.0523 1.47847,-0.631677 z m 6.06968,-1.96758 c 0,-0.0308 0.0337,-0.14349 0.075,-0.25045 0.1213,-0.31481 -0.31159,-0.65708 -0.6219,-0.4917 -0.25357,0.13515 -0.34843,0.53105 -0.16986,0.70889 0.0969,0.0965 0.71682,0.12528 0.71682,0.0332 z m -20.04826,-4.0771 c 0.29723,-0.18761 0.13498,-0.74597 -0.23177,-0.79762 -0.49859,-0.0702 -0.70086,0.34711 -0.3416,0.70486 0.24017,0.2392 0.32075,0.25223 0.57337,0.0928 z m 13.26791,-3.78481 1.26973,-1.225412 V 87.04215 c 0,-0.761565 -0.0314,-1.384662 -0.0698,-1.384662 -0.0382,0 -0.64319,0.495345 -1.34405,1.100773 l -1.27431,1.100777 v 1.509295 c 0,0.83011 0.0335,1.50929 0.0744,1.50929 0.0409,0 0.64572,-0.55144 1.34405,-1.2254 z m -15.09803,-4.760181 0.77671,-0.765449 v -1.857421 c 0,-1.59798 -0.0351,-1.907048 -0.25117,-2.212711 -0.4167,-0.589426 -0.46528,-0.936972 -0.22026,-1.575888 0.26141,-0.681705 0.72949,-0.987921 1.5101,-0.987921 1.26666,0 1.92309,1.371577 1.17903,2.463487 -0.31004,0.45499 -0.33601,0.611604 -0.33601,2.026427 v 1.533323 h 0.80642 0.80644 v -3.182605 c 0,-3.630409 0.0927,-3.298637 -1.32608,-4.747988 l -0.8844,-0.903486 h -1.51566 -1.51568 v 5.487839 c 0,3.018313 0.0437,5.487839 0.0969,5.487839 0.0532,0 0.44643,-0.344449 0.87364,-0.765446 z m 18.05574,-1.970632 c 0.20889,-0.154484 0.23119,-0.241188 0.11178,-0.435015 -0.19626,-0.318734 -0.77308,-0.319711 -0.83464,-0.0015 -0.0455,0.235162 0.18605,0.629356 0.36965,0.629356 0.0508,0 0.20965,-0.08683 0.35315,-0.192932 z M 126.182,78.332524 c 0.16927,-0.439283 -0.48832,-0.761549 -0.83978,-0.41155 -0.21055,0.20968 -0.20343,0.313691 0.0379,0.55408 0.2332,0.232222 0.68861,0.151266 0.80182,-0.14253 z m 5.3266,-0.592244 0.79582,-0.689319 -0.003,-1.151112 c -9.1e-4,-0.944131 -0.0566,-1.246672 -0.30446,-1.682552 -0.31124,-0.547264 -1.11376,-1.193189 -1.3227,-1.064596 -0.12817,0.07888 -0.16767,5.276903 -0.0401,5.276903 0.0429,0 0.43595,-0.310196 0.87365,-0.689324 z m -8.10537,-3.042247 c 0.2766,-0.14742 0.29924,-0.254097 0.29924,-1.409524 0,-2.064012 -0.55748,-3.088779 -2.08871,-3.839484 -0.79875,-0.391604 -0.94261,-0.418862 -1.9077,-0.361472 -0.69561,0.04137 -1.22312,0.154983 -1.58141,0.340605 -0.99201,0.513936 -1.90678,1.712821 -2.14476,2.810897 l -0.0943,0.435011 1.18672,0.0015 c 0.65271,7.79e-4 1.41143,0.03847 1.68604,0.08367 l 0.49931,0.0822 0.0382,-1.455635 0.0384,-1.455634 0.97444,-0.03933 0.97444,-0.03933 v 2.108354 2.108353 l 0.48145,0.491006 c 0.4235,0.431912 0.53308,0.479411 0.9104,0.394663 0.23593,-0.05299 0.56362,-0.168117 0.7282,-0.255838 z"
       id="path1"
       sodipodi:nodetypes="csscsscsccsccsssscscsssssssscssssssssssccccccssscccssssscccssssscsscssccccccsscccssccccsscccsscsssccccccsscccccscsscscccsscccsscscccscscssscscccccssccscccssscssscssscsscscccsscccccccssccssccccccssscssccsscssccsccccscssccsccccsccsscccccssscscsccssssscsscccsssccccccsccssssssscccscccssssccsscsssssssccccccssccccscscsssscscsccssccccccssssccssscsssscsccscscssssssccsssssscsscsscccccscssssccccscscccssccccccccccscccscsccscscsscsscsscsccssscssssssscccccccssccccccssssscssccsccsssccscssssssscsssscccccssccsssscscccccccccccccscccsssssssssssscscsscscssscsssscccccsccccsscccssccccssscssscccscsssscccsscccssscccsscccscccccccssccssssssccscccccccssss" /><text
       xml:space="preserve"
       style="font-style:normal;font-variant:normal;font-weight:normal;font-stretch:normal;font-size:22.5778px;font-family:'Unica One';-inkscape-font-specification:'Unica One';writing-mode:lr-tb;direction:ltr;fill:#7a8b82;stroke-width:0.264583"
       x="51.1166"
       y="158.20445"
       id="text1"><tspan
         sodipodi:role="line"
         id="tspan1"
         x="51.1166"
         y="158.20445"
         style="font-style:normal;font-variant:normal;font-weight:normal;font-stretch:normal;font-family:'Unica One';-inkscape-font-specification:'Unica One';fill:#684564;fill-opacity:1;stroke-width:0.264583">Leerpretpark</tspan></text><path
       style="fill:#42584d;fill-opacity:1;stroke-width:0.434605"
       d="m 372.45635,493.46228 c 0.47807,-0.22402 6.48404,-1.77359 13.34661,-3.44349 6.86257,-1.6699 14.35671,-3.63818 16.65366,-4.37396 5.30916,-1.70067 6.92372,-3.18275 8.8178,-8.09428 1.87724,-4.86782 2.35812,-8.27369 2.17963,-15.43718 -0.14954,-6.00125 -0.20696,-6.3314 -1.68568,-9.69189 -3.78685,-8.60585 -9.46366,-14.33272 -21.28829,-21.476 l -4.38953,-2.65173 -2.59679,0.6729 c -3.42957,0.88869 -10.46509,0.8752 -14.52412,-0.0278 -3.07566,-0.68428 -3.33157,-0.67689 -6.78254,0.19579 -4.32762,1.09436 -11.54546,1.22107 -15.13542,0.2657 -7.38556,-1.96546 -13.8386,-7.5463 -15.89923,-13.75027 -0.39005,-1.17433 -0.83928,-3.04341 -0.99828,-4.1535 l -0.28909,-2.01834 -2.91169,-0.98214 c -6.83428,-2.30523 -10.87895,-7.1398 -11.45736,-13.69488 -0.36809,-4.17148 -0.46992,-4.46173 -2.36964,-6.75412 -3.17836,-3.83533 -3.90504,-5.82418 -3.90504,-10.68772 0,-4.09531 0.0692,-4.40808 1.68909,-7.6298 l 1.68909,-3.35944 -1.62082,-2.25286 c -2.42949,-3.37688 -3.21995,-6.36144 -2.95586,-11.16061 0.24917,-4.5281 1.41398,-7.6971 3.84825,-10.46958 l 1.46927,-1.6734 0.005,-5.03967 c 0.005,-4.90506 0.0471,-5.12675 1.58654,-8.29922 0.86993,-1.79274 2.19004,-3.90721 2.93359,-4.69882 0.74354,-0.79161 1.35888,-1.86726 1.3674,-2.39033 0.0757,-4.64293 0.86409,-9.47521 1.86965,-11.45959 1.61004,-3.17726 5.05368,-6.73228 8.08789,-8.3495 1.44677,-0.77112 2.63732,-1.43947 2.64566,-1.48521 0.008,-0.0457 0.28666,-1.6061 0.61848,-3.46745 1.48201,-8.31337 6.8213,-14.64985 13.82919,-16.41202 1.45341,-0.36546 2.36639,-0.91779 3.04224,-1.84049 3.19985,-4.36853 9.10761,-8.56824 12.053,-8.56824 0.81528,0 2.07875,-0.80476 4.16798,-2.65477 6.38732,-5.65595 8.94298,-6.67803 16.4264,-6.5694 4.5558,0.0661 4.79589,0.023 6.30177,-1.13304 3.94393,-3.02756 7.33997,-4.33457 12.21335,-4.70046 9.16469,-0.68808 17.62307,4.50584 21.91337,13.45605 l 1.91355,3.99194 0.18681,111.3675 0.18681,111.36749 -26.55088,-0.0294 c -16.86547,-0.0187 -26.23381,-0.17799 -25.68168,-0.43671 z m 34.51674,-65.05055 c -1.55627,-4.15702 -3.84292,-7.85047 -6.81872,-11.01376 l -3.23314,-3.43685 h -18.8167 -18.8167 l -1.48684,1.48683 c -1.9833,1.9833 -3.97686,2.34372 -6.58418,1.19038 -2.28336,-1.01004 -3.74616,-3.03536 -3.74861,-5.19015 -0.005,-4.76583 4.41091,-7.45271 9.03038,-5.49406 0.8887,0.3768 3.0826,0.79068 4.87535,0.91972 l 3.25954,0.23461 -3.69415,-3.76536 -3.69414,-3.76537 -7.6839,0.12937 c -7.01869,0.11817 -7.78976,0.2085 -8.9067,1.04347 -3.4344,2.56736 -4.52449,9.40848 -2.21329,13.89004 3.77754,7.3249 13.82031,10.27194 24.35091,7.14575 l 3.35995,-0.99745 4.12781,0.99429 c 5.28173,1.27225 8.38365,1.02783 12.38961,-0.97626 l 2.82493,-1.41325 10.43051,5.09265 c 5.73679,2.80096 10.67014,5.09894 10.96302,5.10661 0.39998,0.0105 0.42115,-0.28348 0.0851,-1.18121 z m 10.44486,-22.81676 -0.02,-18.36205 -3.31255,-2.60763 c -1.82191,-1.4342 -3.47527,-2.67282 -3.67414,-2.7525 -0.19887,-0.0797 -0.36158,7.64762 -0.36158,17.17177 v 17.31663 l 3.28036,3.79792 c 1.80419,2.08885 3.46656,3.79792 3.69414,3.79792 0.25576,0 0.40614,-7.01228 0.39378,-18.36206 z m -62.88905,7.32655 c 0.87358,-0.66314 1.00641,-2.45216 0.23904,-3.21953 -1.74011,-1.7401 -4.16368,0.62316 -2.78965,2.72021 0.80699,1.23161 1.42624,1.35284 2.55061,0.49932 z m 48.13249,-11.73237 v -6.6875 l -4.672,-4.25762 c -2.5696,-2.34169 -8.43677,-7.77979 -13.03815,-12.08467 l -8.36614,-7.82705 v -24.83038 -24.83039 l -3.36819,-2.73654 -3.36819,-2.73653 -0.2773,4.07377 c -0.15253,2.24057 -0.2992,16.11702 -0.32596,30.83654 l -0.0486,26.76278 6.84502,6.33867 c 3.76477,3.48627 11.14762,10.4568 16.40634,15.49007 5.25871,5.03326 9.70798,9.157 9.88726,9.16387 0.17927,0.007 0.32595,-2.9969 0.32595,-6.67502 z m -12.24137,5.49233 c -0.0797,-0.17927 -4.8386,-4.86543 -10.57539,-10.41369 l -10.43051,-10.08775 -6.62773,-0.0168 c -3.67939,-0.009 -6.62772,0.15823 -6.62772,0.37667 0,0.65615 2.69359,3.67577 10.94243,12.26691 l 7.8739,8.20064 h 7.79494 c 4.28722,0 7.72976,-0.14668 7.65008,-0.32596 z m -58.65265,-6.08446 c 1.36596,-2.67108 4.27994,-5.63637 6.69661,-6.81453 1.79665,-0.87588 3.21177,-1.16312 6.82957,-1.38625 2.50984,-0.1548 4.84242,-0.42915 5.1835,-0.60967 0.47154,-0.24957 0.005,-0.97354 -1.9486,-3.02127 l -2.56874,-2.69306 -6.61152,0.14573 -6.61151,0.14574 -1.4358,1.36032 c -1.9662,1.86282 -2.79262,2.2229 -5.91179,2.57579 l -2.69499,0.30491 v 2.59446 c 0,4.03578 1.35117,6.09813 5.43256,8.29196 2.0055,1.07801 2.72219,0.90199 3.64071,-0.89413 z m -11.2081,-18.06893 c 0.5513,-3.39162 3.49325,-5.70493 6.82447,-5.36619 1.02558,0.10429 2.26842,0.55499 2.76186,1.00157 0.77611,0.7024 1.79987,0.83288 7.58795,0.96704 l 6.69079,0.15509 v -4.43613 -4.43613 l -5.54121,0.17968 c -5.26814,0.17083 -5.66931,0.2494 -8.1405,1.59431 -3.14004,1.70894 -4.4331,1.59624 -8.17328,-0.71233 l -2.51673,-1.55342 -1.17824,0.86832 c -0.71457,0.52661 -1.49509,1.795 -1.98339,3.22311 -0.68104,1.99181 -0.73475,2.74323 -0.34842,4.87476 0.88324,4.87325 3.43969,7.19015 4.0167,3.64032 z m 7.52134,0.90203 c 0.65151,-1.04053 -0.14299,-2.24167 -1.59832,-2.41637 -1.31208,-0.1575 -2.25967,1.17905 -1.8194,2.56621 0.21379,0.67359 0.58799,0.84655 1.61002,0.74414 0.73231,-0.0734 1.54578,-0.47567 1.8077,-0.89398 z m 74.58078,-3.56385 v -4.54172 l -3.79918,-3.17252 c -2.08954,-1.74488 -4.61217,-3.9548 -5.60583,-4.91094 -1.78244,-1.7151 -1.81102,-1.79087 -2.13146,-5.64986 -0.45608,-5.49244 0.14754,-32.39882 0.74293,-33.11622 0.3022,-0.36413 1.53433,-0.56565 3.45847,-0.56565 h 2.98902 v 17.35059 17.35058 l 2.32853,1.98933 c 1.28069,1.09413 2.45413,1.98933 2.60763,1.98933 0.15351,0 0.2791,-2.0613 0.2791,-4.58067 0,-3.72299 -0.16275,-4.89967 -0.86921,-6.28445 -2.1073,-4.13066 0.21131,-8.61007 4.65782,-8.99858 5.58774,-0.48823 8.44523,5.07062 5.09304,9.90782 -1.15062,1.66035 -1.24334,2.14946 -1.65745,8.74304 l -0.43865,6.98431 1.11117,0.91706 c 0.61113,0.50438 2.0331,1.6864 3.15991,2.62672 1.65771,1.38335 2.12402,1.59073 2.44308,1.08651 0.22088,-0.34904 0.39726,-9.32406 0.40099,-20.40348 l 0.007,-19.78032 -1.58009,-2.38452 c -0.86905,-1.31149 -3.57826,-4.36265 -6.02047,-6.78036 l -4.44037,-4.39584 -5.94498,-0.20162 c -7.63895,-0.25908 -8.17681,-0.56957 -8.58964,-4.95862 -0.15508,-1.64872 -0.42973,-9.98938 -0.61035,-18.5348 l -0.32839,-15.53712 h 1.18218 c 1.49846,0 2.71091,-0.62345 4.49322,-2.31043 l 1.41247,-1.33692 v -7.95494 -7.95493 h 3.69414 3.69414 v 5.70055 5.70055 l 0.97786,-0.31164 c 0.53782,-0.1714 3.48873,-0.41345 6.55757,-0.53788 l 5.57972,-0.22624 -0.29015,-1.57718 c -1.21884,-6.6253 -7.16272,-11.71599 -14.16575,-12.13238 -5.81669,-0.34585 -10.38595,1.7207 -13.03282,5.89438 -1.65312,2.60669 -2.04447,4.12328 -2.40835,9.33282 -0.16278,2.33057 -0.35405,4.2374 -0.42504,4.2374 -0.071,0 -1.60671,-0.67338 -3.41269,-1.49639 l -3.28362,-1.49639 0.006,-2.30641 c 0.004,-1.26852 0.30338,-3.56631 0.66634,-5.10621 0.86812,-3.6831 0.68573,-4.09292 -1.65158,-3.71092 -4.4374,0.72524 -7.80398,3.08351 -9.29448,6.51073 -0.65947,1.51638 -0.77929,3.73839 -0.93806,17.39674 l -0.18201,15.65833 3.1977,2.41951 c 1.75874,1.33074 3.4742,2.57876 3.81214,2.77337 0.52486,0.30228 0.57358,-0.95941 0.33417,-8.65514 l -0.28026,-9.009 -1.50599,-1.75942 c -2.67716,-3.12765 -2.58043,-5.92531 0.28983,-8.38214 0.97667,-0.836 2.41995,-1.64084 3.20727,-1.78855 1.9082,-0.35798 4.41542,0.89285 5.73942,2.86333 0.86897,1.29328 0.98564,1.87915 0.77891,3.91144 -0.13373,1.31468 -0.4349,4.34605 -0.66927,6.73638 -0.23564,2.4033 -0.43555,19.60292 -0.44722,38.47662 l -0.0211,34.13058 9.21422,8.35205 c 5.06783,4.59362 9.37042,8.35205 9.56131,8.35205 0.1909,0 0.34708,-2.04378 0.34708,-4.54172 z m -40.63555,-1.00615 c 0.25391,-0.18655 0.37646,-1.99613 0.29477,-4.35252 l -0.13983,-4.03322 -5.29273,0.12178 -5.29273,0.12177 -0.12439,4.2374 -0.12439,4.2374 5.12235,-0.007 c 2.81728,-0.004 5.31791,-0.15033 5.55695,-0.32595 z m -32.97835,-10.80078 c 0.42109,-1.67775 -0.0852,-2.33936 -1.79004,-2.33936 -1.71065,0 -2.21114,0.66158 -1.785,2.35948 0.44958,1.79126 3.12419,1.77621 3.57504,-0.0201 z m 15.37399,-5.70755 c -0.004,-2.11188 -0.81534,-3.26268 -4.77779,-6.77441 l -3.25954,-2.88876 -5.88201,-0.003 -5.88201,-0.003 -2.37548,-2.42413 c -1.30652,-1.33327 -2.88568,-2.79371 -3.50926,-3.24542 l -1.13378,-0.82128 -1.11936,2.05664 c -0.61565,1.13115 -1.25164,3.05378 -1.41331,4.27252 -0.58293,4.39432 1.96752,9.51388 5.28504,10.60876 1.39987,0.462 1.69988,0.41221 2.91086,-0.48311 2.06889,-1.5296 5.29954,-1.64629 7.32218,-0.26449 2.11966,1.44809 2.35834,1.49154 8.51341,1.54982 l 5.32391,0.0504 z m 17.82166,-3.29532 v -4.92509 l -7.5812,-7.07665 c -7.72645,-7.21222 -9.803,-9.5813 -9.803,-11.18398 0,-1.87896 -1.01773,-2.0564 -4.79914,-0.8367 -1.93161,0.62304 -3.93998,1.1285 -4.46304,1.12325 -1.71644,-0.0172 -4.45465,-1.58054 -5.84653,-3.33794 -1.2434,-1.56991 -5.80626,-4.4754 -7.02831,-4.4754 -0.75933,0 -2.62638,4.34849 -2.63121,6.12827 -0.009,3.39155 1.91307,6.61514 5.86978,9.84346 l 2.26382,1.84707 h 5.8497 5.84971 l 5.7373,5.54121 5.7373,5.54121 -0.0102,3.36819 -0.0102,3.36819 h 5.43256 5.43256 z m 47.15462,-6.54457 c 0,-2.26238 -2.7565,-2.71088 -3.18764,-0.51866 -0.2822,1.43494 0.2919,2.05417 1.77219,1.91151 1.23968,-0.11946 1.41545,-0.29244 1.41545,-1.39285 z M 362.0395,334.53708 c 0.17926,-4.7209 0.20079,-12.3971 0.0479,-17.05824 l -0.27808,-8.47479 -2.49934,-2.15304 c -1.37465,-1.18417 -4.43542,-4.04217 -6.80173,-6.35113 l -4.30237,-4.19809 -0.26098,-4.38375 c -0.14353,-2.41106 -0.48841,-4.61112 -0.76639,-4.88902 -0.72735,-0.72716 -3.76067,1.07229 -5.12066,3.03773 -2.26878,3.27883 -3.26375,8.32557 -2.43162,12.33388 0.62976,3.03356 1.14083,3.67335 7.17438,8.98133 l 4.90896,4.31863 0.31774,9.9523 0.31774,9.9523 4.37231,3.75766 c 2.40477,2.06672 4.5127,3.75768 4.68429,3.75768 0.17158,0 0.45864,-3.86256 0.6379,-8.58345 z m -25.51334,-5.67378 c 0.31585,-2.22807 -2.55358,-3.20589 -3.47476,-1.18412 -0.6742,1.47971 0.19614,2.49198 1.99192,2.31674 1.02071,-0.0996 1.37474,-0.37001 1.48284,-1.13262 z m 8.32764,-5.62595 -0.005,-4.23739 -2.71114,-2.25605 c -1.49112,-1.24082 -4.56907,-3.91838 -6.83988,-5.95012 l -4.12875,-3.69409 -1.23496,1.16948 c -1.99183,1.88619 -3.01008,4.32314 -3.23313,7.73771 -0.3228,4.94183 1.32307,8.05269 3.92564,7.41986 0.53738,-0.13066 1.75935,-0.43913 2.71548,-0.68548 2.71957,-0.70072 4.64353,0.0285 6.78921,2.57312 1.51505,1.79676 2.06621,2.16036 3.27473,2.16036 h 1.45308 z m 72.54083,-21.29563 0.0433,-19.66587 h -6.0268 -6.0268 l -3.35308,3.50962 c -4.64653,4.86348 -4.72123,5.09506 -4.6855,14.52648 0.0163,4.30259 0.1641,9.53414 0.32844,11.62568 l 0.2988,3.80279 h 2.7788 2.77879 v -6.10178 c 0,-5.24411 -0.12218,-6.34127 -0.86921,-7.80557 -0.47807,-0.93709 -0.86921,-2.52416 -0.86921,-3.52682 0,-1.56468 0.24895,-2.05985 1.75672,-3.49415 1.50477,-1.43146 2.03768,-1.67113 3.71572,-1.67113 5.13732,0 7.18109,3.95925 4.74502,9.19219 -1.01313,2.17631 -1.08161,2.76908 -1.07194,9.27851 l 0.0103,6.95368 2.91737,2.53157 c 2.80135,2.43091 2.92867,2.4914 3.20164,1.52112 0.15635,-0.55575 0.30377,-9.8601 0.32759,-20.67632 z m -55.78224,-25.65675 c -0.48259,-0.48259 -2.94221,0.99999 -4.54658,2.74053 -2.09212,2.26968 -2.35835,3.49168 -2.14144,9.82904 l 0.16576,4.84289 3.25055,3.04523 3.25055,3.04522 0.11588,-11.64616 c 0.0637,-6.40539 0.0211,-11.74093 -0.0947,-11.85675 z m 18.45661,12.59162 c 0.7123,-0.57679 0.89189,-1.04172 0.67109,-1.73741 -0.36221,-1.14121 -2.1694,-1.69805 -3.07412,-0.94721 -0.65377,0.54258 -0.88977,2.64918 -0.35653,3.18242 0.52643,0.52643 1.77222,0.3017 2.75956,-0.4978 z"
       id="path5"
       transform="scale(0.26458333)" /></g></svg>
