<?xml version="1.0" encoding="UTF-8" standalone="no"?>
<svg
   xmlns:dc="http://purl.org/dc/elements/1.1/"
   xmlns:cc="http://creativecommons.org/ns#"
   xmlns:rdf="http://www.w3.org/1999/02/22-rdf-syntax-ns#"
   xmlns:svg="http://www.w3.org/2000/svg"
   xmlns="http://www.w3.org/2000/svg"
   xmlns:sodipodi="http://sodipodi.sourceforge.net/DTD/sodipodi-0.dtd"
   xmlns:inkscape="http://www.inkscape.org/namespaces/inkscape"
   version="1.1"
   id="svg833"
   xml:space="preserve"
   width="655.29865"
   height="805.93597"
   viewBox="0 0 655.29865 805.93597"
   sodipodi:docname="Logo_MeCoaching.svg"
   inkscape:version="1.0.2-2 (e86c870879, 2021-01-15)"><metadata
     id="metadata839"><rdf:RDF><cc:Work
         rdf:about=""><dc:format>image/svg+xml</dc:format><dc:type
           rdf:resource="http://purl.org/dc/dcmitype/StillImage" /><dc:title></dc:title></cc:Work></rdf:RDF></metadata><defs
     id="defs837"><clipPath
       clipPathUnits="userSpaceOnUse"
       id="clipPath849"><path
         d="M 0,604.452 H 491.474 V 0 H 0 Z"
         id="path847" /></clipPath></defs><sodipodi:namedview
     pagecolor="#ffffff"
     bordercolor="#666666"
     borderopacity="1"
     objecttolerance="10"
     gridtolerance="10"
     guidetolerance="10"
     inkscape:pageopacity="0"
     inkscape:pageshadow="2"
     inkscape:window-width="1920"
     inkscape:window-height="991"
     id="namedview835"
     showgrid="false"
     inkscape:zoom="1.0174505"
     inkscape:cx="327.64932"
     inkscape:cy="402.96799"
     inkscape:window-x="-9"
     inkscape:window-y="-9"
     inkscape:window-maximized="1"
     inkscape:current-layer="g841" /><g
     id="g841"
     inkscape:groupmode="layer"
     inkscape:label="Logo_MeCoaching"
     transform="matrix(1.3333333,0,0,-1.3333333,0,805.936)"><g
       id="g843"><g
         id="g845"
         clip-path="url(#clipPath849)"><g
           id="g851"
           transform="translate(313.7871,201.8057)"><path
             d="m 0,0 c -12.119,-21.818 -12.529,-49.819 -12.529,-49.819 0,0 -16.729,33.144 -0.5,67.996 17.97,38.594 46.49,78.432 99.465,125.269 1.66,1.468 10.837,7.991 3.808,14.455 -3.855,3.546 -10.791,7.946 -16.127,13.375 -2.332,2.374 -16.445,12.82 3.096,32.653 44.668,45.333 37.211,78.696 30.812,99.974 -0.959,3.191 33.95,-16.299 20.856,18.358 -17,45 -28.84,-0.818 -31.836,2.809 -16.473,19.938 -61.408,22.282 -81.164,11.191 -10.858,-6.095 -19.324,-15.566 -25.455,-26.528 -0.93,-1.665 2.699,-9.873 2.205,-11.722 -1,-3.75 -8.57,-2.177 -9.344,-4.122 -2.242,-5.647 -11.564,-7.109 -12.738,-12.961 -1.26,-6.292 7.666,-11.975 7.666,-18 0,-12.333 9.904,-17.618 16.334,-18.167 3.502,-0.299 13.224,3.927 13,3.334 -2.668,-7.001 -24.334,-4.334 -24.334,-4.334 -1.666,-19.166 28.973,-37.074 29.998,-41.499 4.924,-21.25 -4.139,-37.927 -12.953,-45.986 -9.735,-8.896 -35.199,-20.566 -48.377,-21.015 -14.637,-0.498 -44.33,10.654 -54.678,21.015 -7.684,7.696 -17.688,33.488 -16.322,40.319 3.333,16.667 26.666,3 31,28.666 0.967,5.725 10.654,7.308 11,13.5 0.164,2.951 -20.001,4.5 -22.001,7.834 -1.703,2.838 21.501,7.166 19.001,15.666 -1.262,4.29 -14.666,1.334 -15,7.667 -0.084,1.576 12.678,3.336 13.349,7.394 1.317,7.939 -16.1,11.189 -16.1,18.939 0,4.161 8.723,4.918 8.348,10.364 -0.419,6.125 -7.439,21.295 -25.004,31.038 -32.927,18.266 -65.652,9.785 -83.016,-5.947 -3.741,-3.39 -9.585,15.288 -28.478,10.947 -6.1,-1.402 20.347,-9.579 11.28,-31.739 -17.046,-41.663 -4.713,-83.663 39.621,-110.329 7.97,-4.794 1.559,-20.324 -3.536,-26.319 -6.37,-7.495 -21.405,-6.005 -15.405,-21.005 13.081,-32.703 83.971,-86.318 111.562,-134.35 103.769,-180.65 -118.741,-219.227 -118.741,-219.227 0,0 111.178,45.244 111.12,131.567 -0.048,68.759 -115.366,135.179 -158.159,225.015 -24.467,51.365 -36.324,112.276 -13.159,165.615 3.017,6.944 6.65,12.308 6.65,12.308 -12.85,80.968 -47.157,63.106 -43.729,64.461 46.236,18.279 58.836,-32.956 84.773,-20.301 110.19,53.764 162.473,-40.612 162.473,-40.612 0,0 96.149,110.514 183.073,18.751 C 178.68,307.013 199.687,242.461 145.74,156.276 130.812,132.428 86.957,100.884 70.607,84.938 16.607,32.271 4.551,8.19 0,0"
             style="fill:#414142;fill-opacity:1;fill-rule:nonzero;stroke:none"
             id="path853" /></g><g
           id="g855"
           transform="translate(298.7539,200.3057)"><path
             d="m 0,0 c -12.119,-21.818 -12.529,-49.819 -12.529,-49.819 0,0 -16.729,33.144 -0.5,67.996 17.97,38.594 46.49,78.432 99.465,125.269 1.66,1.468 10.837,7.991 3.808,14.455 -3.855,3.546 -10.791,7.946 -16.127,13.375 -2.332,2.374 -16.445,12.82 3.096,32.653 44.668,45.333 37.211,78.696 30.812,99.974 -0.959,3.191 33.95,-16.299 20.856,18.358 -17,45 -28.84,-0.818 -31.836,2.809 -16.473,19.938 -61.408,22.282 -81.164,11.191 -10.858,-6.095 -19.324,-15.566 -25.455,-26.528 -0.93,-1.665 2.699,-9.873 2.205,-11.722 -1,-3.75 -8.57,-2.177 -9.344,-4.122 -2.242,-5.647 -11.564,-7.109 -12.738,-12.961 -1.261,-6.292 7.666,-11.975 7.666,-18 0,-12.333 9.904,-17.618 16.334,-18.167 3.502,-0.299 13.224,3.927 13,3.334 -2.668,-7.001 -24.334,-4.334 -24.334,-4.334 -1.666,-19.166 28.973,-37.074 29.998,-41.499 4.924,-21.25 -4.139,-37.927 -12.953,-45.986 -9.735,-8.896 -35.199,-20.566 -48.378,-21.015 -14.636,-0.498 -44.33,10.654 -54.678,21.015 -7.683,7.696 -17.687,33.488 -16.321,40.319 3.333,16.666 26.665,3 30.999,28.666 0.967,5.725 10.654,7.308 11,13.5 0.164,2.951 -20,4.5 -22,7.834 -1.703,2.838 21.5,7.166 19,15.666 -1.262,4.29 -14.666,1.334 -15,7.667 -0.083,1.576 12.678,3.336 13.35,7.394 1.317,7.939 -16.1,11.189 -16.1,18.939 0,4.161 8.722,4.918 8.348,10.364 -0.419,6.125 -7.44,21.295 -25.004,31.038 -32.927,18.266 -65.653,9.785 -83.016,-5.947 -3.741,-3.39 -9.586,15.288 -28.479,10.947 -6.099,-1.402 20.347,-9.579 11.281,-31.739 -17.046,-41.663 -4.713,-83.663 39.621,-110.329 7.97,-4.794 1.558,-20.324 -3.536,-26.319 -6.371,-7.495 -21.406,-6.005 -15.406,-21.005 13.081,-32.703 83.972,-86.318 111.563,-134.35 103.769,-180.65 -118.741,-219.227 -118.741,-219.227 0,0 111.178,45.244 111.119,131.567 -0.048,68.759 -115.365,135.179 -158.158,225.015 -24.467,51.364 -36.325,112.276 -13.16,165.615 3.017,6.944 6.651,12.308 6.651,12.308 -12.851,80.968 -47.157,63.106 -43.73,64.461 46.237,18.279 58.836,-32.956 84.774,-20.301 110.189,53.764 162.473,-40.612 162.473,-40.612 0,0 96.149,110.514 183.073,18.751 C 178.68,307.013 199.687,242.461 145.74,156.276 130.812,132.428 86.957,100.884 70.607,84.938 16.607,32.271 4.551,8.19 0,0"
             style="fill:#406d80;fill-opacity:1;fill-rule:nonzero;stroke:none"
             id="path857" /></g></g></g></g></svg>
