<?xml version="1.0" encoding="utf-8"?>
<!-- Generator: Adobe Illustrator 16.0.0, SVG Export Plug-In . SVG Version: 6.00 Build 0)  -->
<!DOCTYPE svg PUBLIC "-//W3C//DTD SVG 1.1//EN" "http://www.w3.org/Graphics/SVG/1.1/DTD/svg11.dtd">
<svg version="1.1" id="Layer_1" xmlns="http://www.w3.org/2000/svg" xmlns:xlink="http://www.w3.org/1999/xlink" x="0px" y="0px"
	 width="511.994px" height="512px" viewBox="0 0 511.994 512" enable-background="new 0 0 511.994 512" xml:space="preserve">
<g>
	<g>
		<g>
			<path fill="#015A9C" d="M169.521,408.607c-3.761-0.195-12.632,0-16.583,0.674c-0.484-2.697-1.833-9.066-3.472-16.199
				c-2.702-0.1-5.405-0.195-8.007-0.195c-2.022,0-5.594,0.096-7.812,0.195c-1.829,4.047-4.821,11.09-5.016,15.525
				c-3.761-0.195-9.64,0.096-13.786,0.77c3.951-5.205,10.895-18.514,15.14-26.715c3.951-7.807,8.292-16.293,8.292-18.9
				c0-1.059-0.579-1.828-2.022-1.828c-1.254,0-2.508,0.094-4.15,0.189c0.29-1.834,0.579-3.762,0.679-5.596
				c3.372,0.1,5.784,0.197,8.292,0.197c4.051,0,8.292-0.197,11.864-0.676c0.579,6.943,7.907,35.875,10.03,41.854
				c1.348,4.146,2.312,5.305,5.399,5.305c0.674,0,1.349-0.096,1.833-0.195L169.521,408.607z M141.844,387.393
				c1.933,0,3.861,0,6.463-0.1c-1.448-6.654-2.702-13.211-3.856-20.539h-0.579c-2.702,7.428-6.848,17.264-8.196,20.539
				c1.928,0,4.53,0.1,6.073,0.1H141.844z"/>
			<path fill="#015A9C" d="M178.103,371.189c3.472-1.93,9.835-4.531,14.561-4.531c2.028,0,3.282,1.254,3.282,3.566
				c0,1.35-0.29,4.342-0.774,7.523l0.29,0.096c3.182-6.17,8.486-11.09,13.117-11.09c1.543,0,2.123,0.963,2.217,1.928
				c0,1.348-1.253,7.617-2.022,10.898h-0.774c-0.386-0.773-1.449-1.447-2.797-1.447c-2.603,0-5.016,1.158-7.423,3.566
				c-1.354,1.158-2.992,4.051-3.187,5.693c-0.385,3.371-1.35,13.307-1.35,16.584c0,0.869,0,1.928,0.195,3.086
				c-3.282,0.385-9.355,1.74-12.152,2.799c1.543-9.646,3.182-26.715,3.182-31.244c0-1.834-0.29-3.088-1.734-3.088
				c-1.543,0-3.761,0.674-5.209,1.35L178.103,371.189z"/>
			<path fill="#015A9C" d="M248.119,405.33c-3.762,2.602-9.546,3.951-15.235,3.951c-8.197,0-15.14-3.951-15.14-15.234
				c0-10.609,2.697-17.168,7.423-21.895c3.956-3.951,8.97-5.398,15.913-5.398c4.532,0.094,8.583,0.385,10.706,1.254
				c-0.58,2.506-1.35,7.711-1.639,11.283c-1.833,0.096-3.861,0.189-5.304,0.385c-0.291-3.666-1.159-6.943-5.305-6.943
				c-5.015,0-10.03,4.92-10.03,19.576c0,6.652,2.992,10.32,7.907,10.32c2.992,0,7.908-1.254,11.379-4.531L248.119,405.33z"/>
			<path fill="#015A9C" d="M302.319,405.615c-2.89,1.832-8.005,3.762-13.696,3.762c-3.471,0-3.661-2.314-3.661-4.146
				c0-2.312,2.798-23.143,2.798-26.424c0-1.639-0.579-3.277-2.217-3.277c-2.992,0-7.524,2.988-10.71,6.27
				c-0.965,10.414-1.828,21.408-1.638,24.975c-3.567,0.58-8.677,1.834-12.249,3.088c0.964-5.4,2.317-20.541,3.086-29.223
				c0.775-8.871,1.545-17.553,1.545-20.539c0-1.832-0.384-3.182-1.834-3.182c-1.153,0-3.376,0.48-4.915,1.059l0.575-5.689
				c3.86-1.447,11.094-3.471,15.145-3.471c2.602,0,3.082,1.834,3.082,4.145c0,1.061-1.153,11.48-2.313,21.795
				c4.246-3.277,11.189-8.002,18.133-8.002c4.626,0,6.074,3.182,6.074,6.174c0,2.217-2.893,22.758-2.893,26.902
				c0,1.158,0.386,1.834,1.155,1.834c1.252,0,2.991-0.775,5.209-2.027L302.319,405.615z"/>
			<path fill="#015A9C" d="M334.239,405.715c-4.051,2.217-9.356,3.662-13.791,3.662c-3.182,0-3.956-1.734-3.956-4.336
				c0.1-1.449,2.702-24.207,2.796-26.523c0-1.83-0.384-2.893-1.731-2.893c-1.544,0-3.378,0.578-5.111,1.254l0.575-5.689
				c4.246-2.123,11.862-4.531,15.819-4.531c2.217,0,2.313,1.543,2.313,2.508c0,2.219-2.703,24.881-2.703,28.932
				c0,2.602,0.39,3.277,1.543,3.277c1.063,0,2.991-0.58,4.632-1.639L334.239,405.715z M327.775,351.229
				c3.472,0,5.405,1.928,5.405,5.01c-0.1,3.572-3.088,5.695-7.139,5.695c-3.762,0-5.979-1.645-5.979-4.826
				c0.094-3.566,2.696-5.879,7.618-5.879H327.775z"/>
			<path fill="#015A9C" d="M370.499,405.23c-6.271,2.992-11.09,4.146-16.01,4.146c-3.951,0-6.458-3.182-6.458-6.943
				c0-1.545,2.407-24.881,2.797-28.641c-1.255,0-3.376,0.1-6.654,0.193c0.286-1.834,0.576-3.566,0.77-5.209
				c2.123,0,3.957,0,5.495-0.291c1.064-0.285,1.644-0.863,1.934-1.828c0.863-3.188,1.442-7.043,3.082-8.006
				c1.158-0.77,5.884-0.965,8.774-1.061c-0.579,2.219-1.348,7.812-1.638,10.801c2.603-0.096,6.364-0.096,11.479-0.191
				c-0.39,1.25-0.775,3.857-1.064,5.4c-5.014,0.094-10.029,0.191-10.799,0.48c-0.579,0.869-0.965,5.014-1.64,10.994
				c-0.483,5.594-0.869,11.572-0.869,12.537c0,2.99,1.16,4.051,3.183,4.051c1.833,0,4.34-0.676,8.583-2.893L370.499,405.23z"/>
			<path fill="#015A9C" d="M412.541,405.52c-4.919,2.992-10.029,3.857-15.718,3.857c-9.836,0-15.526-4.24-15.526-15.234
				c0-9.646,2.603-16.975,6.844-21.41c3.761-3.955,8.776-5.979,14.95-5.979c4.437,0,7.619,0.77,9.836,2.412
				c1.928,1.539,3.182,4.045,3.182,7.422c0,11.381-10.125,15.336-20.735,15.336c-0.769,0-1.538,0-2.407-0.096
				c-0.1,0.77-0.1,1.639-0.1,2.604c0,5.305,2.992,8.391,7.718,8.391c4.051,0,8.582-1.254,12.538-4.34L412.541,405.52z
				 M406.562,377.844c0-3.762-1.544-5.207-4.246-5.207c-3.661,0-8.291,3.662-9.351,14.076c0.77,0.1,1.544,0.1,2.023,0.1
				c7.233,0,11.573-2.701,11.573-8.875V377.844z"/>
			<path fill="#015A9C" d="M455.939,405.33c-3.761,2.602-9.546,3.951-15.234,3.951c-8.197,0-15.141-3.951-15.141-15.234
				c0-10.609,2.696-17.168,7.423-21.895c3.956-3.951,8.97-5.398,15.913-5.398c4.53,0.094,8.583,0.385,10.704,1.254
				c-0.579,2.506-1.348,7.711-1.638,11.283c-1.834,0.096-3.86,0.189-5.305,0.385c-0.29-3.666-1.159-6.943-5.304-6.943
				c-5.016,0-10.031,4.92-10.031,19.576c0,6.652,2.992,10.32,7.908,10.32c2.992,0,7.906-1.254,11.378-4.531L455.939,405.33z"/>
			<path fill="#015A9C" d="M494.901,405.23c-6.27,2.992-11.09,4.146-16.009,4.146c-3.951,0-6.46-3.182-6.46-6.943
				c0-1.545,2.409-24.881,2.798-28.641c-1.254,0-3.377,0.1-6.653,0.193c0.284-1.834,0.573-3.566,0.77-5.209
				c2.123,0,3.954,0,5.495-0.291c1.062-0.285,1.642-0.863,1.931-1.828c0.865-3.188,1.444-7.043,3.083-8.006
				c1.16-0.77,5.884-0.965,8.776-1.061c-0.579,2.219-1.349,7.812-1.638,10.801c2.603-0.096,6.363-0.096,11.479-0.191
				c-0.389,1.25-0.774,3.857-1.064,5.4c-5.016,0.094-10.031,0.191-10.8,0.48c-0.579,0.869-0.963,5.014-1.639,10.994
				c-0.482,5.594-0.868,11.572-0.868,12.537c0,2.99,1.158,4.051,3.182,4.051c1.834,0,4.341-0.676,8.581-2.893L494.901,405.23z"/>
		</g>
		<g>
			<g>
				<path fill="#A3238E" d="M40.499,338.562c-13.307,0-23.917-4.146-23.917-22.182c0-15.621,6.364-24.396,14.66-28.449
					c4.726-2.217,9.931-2.891,14.945-2.891c8.971,0,15.24,1.539,19.676,7.422c2.697,3.668,4.146,8.197,4.146,15.336
					c0,14.85-5.785,22.951-13.018,27.098c-5.305,2.992-10.899,3.666-16.399,3.666H40.499z M41.562,331.619
					c3.951,0,6.653-2.027,8.582-5.014c2.602-3.473,4.051-11.189,4.051-20.256c0-3.951-0.674-8.967-2.703-11.379
					c-1.543-1.832-3.087-2.891-6.269-2.891c-2.407,0-4.915,0.768-7.423,3.955c-3.282,4.047-5.305,11.379-5.305,21.119
					c0,3.182,0.385,7.133,1.638,9.74c1.06,2.406,3.472,4.725,7.328,4.725H41.562z"/>
				<path fill="#A3238E" d="M130.185,334.512c-4.146,2.412-11.768,3.855-16.104,3.855c-3.761,0-4.535-1.928-4.535-3.951
					c0-2.99,2.413-20.443,2.413-24.109c0-1.834-0.484-3.184-2.028-3.184c-2.118,0-5.688,1.834-8.581,5.207
					c-0.769,8.775-1.734,19.674-1.544,23.34c-4.625,0.676-11.668,2.119-15.814,3.277c1.638-8.582,3.087-24.881,3.087-29.125
					c0-1.734-0.384-2.799-1.833-2.799c-1.449,0-3.566,0.484-5.21,1.16l0.775-7.328c2.797-1.449,11.378-5.109,17.937-5.109
					c3.087,0,3.761,1.543,3.761,3.371c0,0.674-0.29,3.471-0.484,5.016c5.304-4.727,12.443-8.387,19.771-8.387
					c4.436,0,5.594,3.855,5.594,6.168c0,2.318-2.702,20.154-2.702,23.916c0,1.928,0.485,2.893,1.644,2.893
					c1.638,0,3.472-0.965,4.82-1.732L130.185,334.512z"/>
				<path fill="#A3238E" d="M188.047,334.416c-3.951,1.93-11.089,3.951-16.199,3.951c-4.051,0-5.015-1.928-5.015-4.914
					c0-0.68,0-1.738,0.195-3.188c-5.115,5.211-9.356,8.197-15.82,8.197c-6.558,0-10.415-6.074-10.415-15.039
					c0-8.973,2.313-15.82,6.753-20.836c4.146-4.725,9.256-6.457,16.394-6.457c1.06,0,3.567,0.289,5.595,0.768
					c0.285-3.275,0.48-6.168,0.48-7.422c0-1.738-0.195-2.607-2.218-2.607c-0.869,0-3.472,0.484-5.209,1.062l0.773-7.232
					c5.4-1.928,13.792-4.051,18.807-4.051c2.891,0,3.276,2.123,3.276,4.725c0,0.771-3.761,36.455-3.761,43.688
					c0,2.797,0.675,3.566,1.639,3.566c1.543,0,3.666-0.674,5.209-1.637L188.047,334.416z M159.406,326.895
					c2.797,0,5.689-2.318,7.907-5.305c0.484-4.436,0.97-10.031,1.543-16.59c-0.964-0.674-2.217-1.059-3.761-1.059
					c-6.168,0-9.256,6.943-9.256,16.975c0,3.951,0.964,5.979,3.472,5.979H159.406z"/>
				<path fill="#A3238E" d="M231.734,334.512c-5.5,3.182-11.378,3.855-17.263,3.855c-11.573,0-17.263-4.24-17.263-15.523
					c0-8.777,2.413-15.82,6.653-20.445c3.956-4.246,9.551-6.559,16.973-6.559c4.92,0,8.582,0.674,11.089,2.602
					c2.124,1.545,3.571,4.146,3.571,7.719c0,11.088-9.261,16.104-20.639,16.104c-0.869,0-1.543-0.096-2.797-0.096v1.445
					c0,3.377,2.218,6.559,7.042,6.559c3.951,0,9.451-1.35,13.307-4.438L231.734,334.512z M223.438,307.893
					c0-3.086-1.155-4.529-3.567-4.529c-3.472,0-7.138,3.855-7.712,12.438c0.675,0.1,1.349,0.195,1.928,0.195
					c5.69,0,9.352-2.508,9.352-8.004V307.893z"/>
				<path fill="#A3238E" d="M245.042,300.855c4.051-2.219,11.284-5.109,17.357-5.109c2.219,0,3.762,1.059,3.762,3.855
					c0,1.348-0.289,4.24-0.769,7.521l0.384,0.191c3.277-6.654,8.197-11.475,13.597-11.475c1.928,0,2.509,1.254,2.509,2.312
					c0,1.545-1.444,9.262-2.409,13.312l-0.869,0.094c-0.29-0.869-1.544-1.832-3.183-1.832c-2.217,0-4.436,0.674-6.752,2.508
					c-1.545,1.059-3.662,4.051-3.855,5.883c-0.386,3.762-1.061,12.055-1.061,14.562c0,0.773,0,1.832,0.096,2.99
					c-4.051,0.48-11.764,2.119-15.525,3.277c1.638-8.582,3.083-24.881,3.083-29.125c0-1.734-0.48-2.799-1.829-2.799
					c-1.643,0-3.761,0.484-5.209,1.16L245.042,300.855z"/>
				<path fill="#A3238E" d="M290.266,300.76c4.82-2.318,11.284-5.115,16.3-5.115c3.082,0,3.567,2.123,3.761,3.668
					c0.77,3.76,1.828,16.393,2.313,24.879h0.769c3.861-8.967,6.754-19.191,7.333-24.975c3.182-0.484,9.351-1.928,13.502-3.471
					c0.963,4.818,3.183,19.959,4.146,28.541h0.769c3.282-5.4,7.429-13.502,7.429-16.973c0-1.539-0.579-2.219-1.544-2.219
					c-0.673,0-1.349,0-2.217,0.391l0.769-6.66c2.123-1.059,8.197-3.182,11.863-3.182c3.667,0,3.856,2.607,3.856,4.246
					c0,5.885-8.197,21.793-18.802,36.164c-3.762,0.48-10.515,1.928-13.79,3.277c-0.676-7.424-1.544-17.068-2.509-23.143h-0.674
					c-2.029,5.4-5.5,13.887-8.487,19.865c-3.57,0.48-10.804,2.023-14.081,3.277c-0.29-7.424-2.413-24.396-3.183-28.447
					c-0.483-2.217-0.772-4.051-3.281-4.051c-1.349,0-3.372,0.48-4.82,1.35L290.266,300.76z"/>
				<path fill="#A3238E" d="M393.361,334.416c-4.437,2.408-11.189,3.951-16.3,3.951c-4.24,0-5.109-1.928-5.016-4.914
					c0-1.449,2.413-21.51,2.413-23.631c0.096-1.83-0.384-2.799-1.833-2.799c-1.543,0-3.376,0.484-5.11,1.16l0.676-7.328
					c5.109-2.414,13.886-5.109,18.806-5.109c2.793,0,2.893,1.828,2.893,2.986c-0.1,2.701-2.413,22.662-2.413,26.039
					c-0.096,2.797,0.485,3.566,1.638,3.566c1.255,0,3.088-0.58,4.727-1.543L393.361,334.416z M385.163,277.998
					c4.437,0,6.943,2.316,6.85,5.979c-0.1,4.631-4.051,7.232-9.166,7.232c-4.53,0-7.423-2.121-7.329-5.979
					c0.097-4.34,3.472-7.232,9.546-7.232H385.163z"/>
				<path fill="#A3238E" d="M402.517,300.855c5.209-2.604,14.369-5.109,18.71-5.109c2.893,0,3.088,1.443,3.088,3.182
					c0,1.348-1.064,10.51-1.737,18.611c-0.481,5.979-0.965,12.152-1.444,17.646c-0.679,8.488-2.898,12.924-6.271,16.105
					c-5.688,5.209-13.117,5.5-19.385,5.5c-1.349,0-3.855-0.197-5.595-0.486c0.774-3.377,1.354-5.688,1.93-8.676
					c1.831,0.963,4.534,1.254,5.979,1.254c5.498,0,7.718-6.369,8.681-13.602c0.675-5.59,2.412-21.6,2.412-25.75
					c0-1.539-0.484-2.508-1.927-2.508c-1.544,0-3.378,0.391-5.115,1.16L402.517,300.855z M419.395,278.287
					c4.341,0,6.848,2.219,6.848,6.174c0,4.436-3.281,7.133-8.971,7.133c-4.819,0-7.522-1.928-7.522-5.979
					c0-4.531,3.472-7.328,9.55-7.328H419.395z"/>
				<path fill="#A3238E" d="M467.039,308.668c-1.74-3.861-5.885-6.08-10.515-6.08c-3.662,0-5.69,1.934-5.69,4.15
					c0,1.539,0.675,2.312,2.219,3.184c0.963,0.674,2.7,1.348,5.209,2.508c6.653,2.891,10.799,5.203,10.799,12.342
					c0,8.777-6.558,13.887-19.575,13.887c-3.378,0-11.669-0.385-14.661-1.449c0.579-3.566,1.254-7.133,1.739-11.568l0.579-0.1
					c2.604,3.957,8.871,6.268,11.957,6.268c3.472,0,5.595-1.732,5.595-4.051c0-1.732-0.679-2.791-2.896-3.951
					c-2.024-1.062-4.337-1.928-7.908-3.855c-5.206-2.797-7.037-6.078-7.037-11.385c0-8.291,7.616-12.82,20.25-12.82
					c4.341,0,9.26,0.574,12.731,1.348c-0.774,2.988-1.544,7.713-2.123,11.473L467.039,308.668z"/>
			</g>
		</g>
		<g>
			<g>
				<g>
					<radialGradient id="SVGID_1_" cx="227.8945" cy="177.8589" r="113.033" gradientUnits="userSpaceOnUse">
						<stop  offset="0" style="stop-color:#FFFFFF"/>
						<stop  offset="1" style="stop-color:#A3238E"/>
					</radialGradient>
					<path fill="url(#SVGID_1_)" d="M211.959,161.368c-49.932,11.324-78.427,8.845-121.862-5.963
						c-4.625,9.771-7.285,20.653-7.285,32.184c0,0.279,0.038,0.547,0.038,0.827C135.908,191.956,164.241,187.941,211.959,161.368z"
						/>
					<radialGradient id="SVGID_2_" cx="227.9019" cy="177.8584" r="113.0451" gradientUnits="userSpaceOnUse">
						<stop  offset="0" style="stop-color:#FFFFFF"/>
						<stop  offset="1" style="stop-color:#A3238E"/>
					</radialGradient>
					<path fill="url(#SVGID_2_)" d="M215.065,166.603c-48.888,27.284-77.856,31.492-131.901,27.925
						c1.178,12.932,5.594,24.925,12.47,35.139C149.661,217.869,176,206.343,215.065,166.603z"/>
					<radialGradient id="SVGID_3_" cx="227.8999" cy="177.8569" r="113.0469" gradientUnits="userSpaceOnUse">
						<stop  offset="0" style="stop-color:#FFFFFF"/>
						<stop  offset="1" style="stop-color:#A3238E"/>
					</radialGradient>
					<path fill="url(#SVGID_3_)" d="M141.777,261.167c5.31,1.178,10.799,1.853,16.46,1.853c11.521,0,22.387-2.661,32.161-7.276
						c17.268-22.794,26.88-45.639,34.479-82.19C200.989,218.315,180.663,238.29,141.777,261.167z"/>
					<radialGradient id="SVGID_4_" cx="227.9023" cy="177.8579" r="113.0449" gradientUnits="userSpaceOnUse">
						<stop  offset="0" style="stop-color:#FFFFFF"/>
						<stop  offset="1" style="stop-color:#A3238E"/>
					</radialGradient>
					<path fill="url(#SVGID_4_)" d="M219.435,170.828c-39.465,40.206-66.193,52.292-119.81,64.187
						c8.785,10.851,20.534,19.162,34.002,23.816C174.632,235.337,195.233,216.079,219.435,170.828z"/>
					<radialGradient id="SVGID_5_" cx="227.9023" cy="177.8579" r="113.044" gradientUnits="userSpaceOnUse">
						<stop  offset="0" style="stop-color:#FFFFFF"/>
						<stop  offset="1" style="stop-color:#A3238E"/>
					</radialGradient>
					<path fill="url(#SVGID_5_)" d="M158.238,112.16c-1.795,0-3.552,0.145-5.319,0.269c17.563,13.753,38.154,23.864,68.691,34.328
						C208.179,125.958,184.842,112.16,158.238,112.16z"/>
					<radialGradient id="SVGID_6_" cx="227.8989" cy="177.8608" r="113.0565" gradientUnits="userSpaceOnUse">
						<stop  offset="0" style="stop-color:#FFFFFF"/>
						<stop  offset="1" style="stop-color:#A3238E"/>
					</radialGradient>
					<path fill="url(#SVGID_6_)" d="M210.525,155.455c-42.675-2.681-68.32-10.355-97.394-28.217
						c-8.178,6.122-15.064,13.83-20.193,22.715C134.644,164.052,162.379,166.337,210.525,155.455z"/>
					<radialGradient id="SVGID_7_" cx="227.894" cy="177.8574" r="113.034" gradientUnits="userSpaceOnUse">
						<stop  offset="0" style="stop-color:#FFFFFF"/>
						<stop  offset="1" style="stop-color:#A3238E"/>
					</radialGradient>
					<path fill="url(#SVGID_7_)" d="M144.398,113.485c-9.279,1.724-17.933,5.163-25.683,9.949
						c27.184,16.208,51.879,23.372,91.933,25.933C181.508,138.769,161.762,128.169,144.398,113.485z"/>
				</g>
				<g>
					<path fill="none" d="M244.129,135.972c1.862-1.891,3.724-3.769,5.538-5.537l6.402-15.013
						C252.118,121.632,248.167,128.459,244.129,135.972z"/>
					<radialGradient id="SVGID_8_" cx="227.9014" cy="177.853" r="113.0388" gradientUnits="userSpaceOnUse">
						<stop  offset="0" style="stop-color:#FFFFFF"/>
						<stop  offset="0.7528" style="stop-color:#5575AD"/>
						<stop  offset="1" style="stop-color:#015A9C"/>
					</radialGradient>
					<path fill="url(#SVGID_8_)" d="M313.732,138.681l-6.781-16.339c-17.164,4.187-34.422,11.474-55.365,23.068
						C276.006,139.932,295.354,137.738,313.732,138.681z"/>
					<radialGradient id="SVGID_9_" cx="227.9028" cy="177.856" r="113.0421" gradientUnits="userSpaceOnUse">
						<stop  offset="0" style="stop-color:#FFFFFF"/>
						<stop  offset="0.7528" style="stop-color:#5575AD"/>
						<stop  offset="1" style="stop-color:#015A9C"/>
					</radialGradient>
					<path fill="url(#SVGID_9_)" d="M256.069,115.422l-6.402,15.013c16.281-15.898,30.594-27.025,45.932-35.407l-7.483-18.013
						C276.175,87.566,266.089,99.648,256.069,115.422z"/>
					<radialGradient id="SVGID_10_" cx="227.9014" cy="177.8574" r="113.0411" gradientUnits="userSpaceOnUse">
						<stop  offset="0" style="stop-color:#FFFFFF"/>
						<stop  offset="0.7528" style="stop-color:#5575AD"/>
						<stop  offset="1" style="stop-color:#015A9C"/>
					</radialGradient>
					<path fill="url(#SVGID_10_)" d="M248.584,140.118c21.172-11.742,38.658-19.187,55.973-23.527l-6.582-15.84
						C281.637,109.768,266.43,122.051,248.584,140.118z"/>
					<radialGradient id="SVGID_11_" cx="227.8892" cy="177.8569" r="113.0533" gradientUnits="userSpaceOnUse">
						<stop  offset="0" style="stop-color:#FFFFFF"/>
						<stop  offset="0.7528" style="stop-color:#5575AD"/>
						<stop  offset="1" style="stop-color:#015A9C"/>
					</radialGradient>
					<path fill="url(#SVGID_11_)" d="M285.636,71.051l-5.251-12.646l-13.518,31.686C272.728,83.093,278.902,76.85,285.636,71.051z"
						/>
					<radialGradient id="SVGID_12_" cx="227.8999" cy="177.8569" r="113.0425" gradientUnits="userSpaceOnUse">
						<stop  offset="0" style="stop-color:#FFFFFF"/>
						<stop  offset="0.7528" style="stop-color:#5575AD"/>
						<stop  offset="1" style="stop-color:#015A9C"/>
					</radialGradient>
					<path fill="url(#SVGID_12_)" d="M236.912,174.088c2.754,33.846,0.854,57.554-6.821,81.532h22.616
						C253.846,229.718,249.296,206.362,236.912,174.088z"/>
					<radialGradient id="SVGID_13_" cx="227.8921" cy="177.8564" r="113.052" gradientUnits="userSpaceOnUse">
						<stop  offset="0" style="stop-color:#FFFFFF"/>
						<stop  offset="0.7528" style="stop-color:#5575AD"/>
						<stop  offset="1" style="stop-color:#015A9C"/>
					</radialGradient>
					<path fill="url(#SVGID_13_)" d="M258.852,255.62h24.031c-5.745-29.855-16.631-52.782-40.339-83.816
						C255.328,205.028,260.02,229.011,258.852,255.62z"/>
					<radialGradient id="SVGID_14_" cx="227.9004" cy="177.856" r="113.0418" gradientUnits="userSpaceOnUse">
						<stop  offset="0" style="stop-color:#FFFFFF"/>
						<stop  offset="0.7528" style="stop-color:#5575AD"/>
						<stop  offset="1" style="stop-color:#015A9C"/>
					</radialGradient>
					<path fill="url(#SVGID_14_)" d="M250.816,163.051c40.234,29.456,57.254,52.188,74.099,92.569h37.403l-4.12-9.926
						C324.783,201.233,303.369,182.042,250.816,163.051z"/>
					<radialGradient id="SVGID_15_" cx="227.9053" cy="177.856" r="113.0395" gradientUnits="userSpaceOnUse">
						<stop  offset="0" style="stop-color:#FFFFFF"/>
						<stop  offset="0.7528" style="stop-color:#5575AD"/>
						<stop  offset="1" style="stop-color:#015A9C"/>
					</radialGradient>
					<path fill="url(#SVGID_15_)" d="M247.312,168.023c24.819,32.438,35.969,56.198,41.792,87.597h29.198
						C302.24,217.91,285.522,196.044,247.312,168.023z"/>
					<radialGradient id="SVGID_16_" cx="227.896" cy="177.856" r="113.0452" gradientUnits="userSpaceOnUse">
						<stop  offset="0" style="stop-color:#FFFFFF"/>
						<stop  offset="0.7528" style="stop-color:#5575AD"/>
						<stop  offset="1" style="stop-color:#015A9C"/>
					</radialGradient>
					<path fill="url(#SVGID_16_)" d="M230.851,174.672c-6.553,31.612-14.532,53.275-27.44,73.229
						c-1.681,2.596-3.477,5.16-5.329,7.72h25.569C231.564,231.704,233.567,208.324,230.851,174.672z"/>
					<radialGradient id="SVGID_17_" cx="227.9038" cy="177.855" r="113.0313" gradientUnits="userSpaceOnUse">
						<stop  offset="0" style="stop-color:#FFFFFF"/>
						<stop  offset="0.7528" style="stop-color:#5575AD"/>
						<stop  offset="1" style="stop-color:#015A9C"/>
					</radialGradient>
					<path fill="url(#SVGID_17_)" d="M253.419,151.23c29.862,1.828,51.433,6.138,71.639,14.719l-8.714-21
						C297.68,143.641,278.219,145.712,253.419,151.23z"/>
					<radialGradient id="SVGID_18_" cx="227.9067" cy="177.856" r="113.0329" gradientUnits="userSpaceOnUse">
						<stop  offset="0" style="stop-color:#FFFFFF"/>
						<stop  offset="0.7528" style="stop-color:#5575AD"/>
						<stop  offset="1" style="stop-color:#015A9C"/>
					</radialGradient>
					<path fill="url(#SVGID_18_)" d="M349.355,224.428l-20.839-50.157c-21.452-10.092-43.658-15.013-75.601-16.976
						C299.457,174.081,322.081,190.926,349.355,224.428z"/>
				</g>
			</g>
		</g>
	</g>
</g>
</svg>
