<?xml version="1.0" encoding="UTF-8"?>
<svg id="Layer_1" xmlns="http://www.w3.org/2000/svg" version="1.1" xmlns:cc="http://creativecommons.org/ns#" xmlns:dc="http://purl.org/dc/elements/1.1/" xmlns:inkscape="http://www.inkscape.org/namespaces/inkscape" xmlns:rdf="http://www.w3.org/1999/02/22-rdf-syntax-ns#" xmlns:sodipodi="http://sodipodi.sourceforge.net/DTD/sodipodi-0.dtd" xmlns:svg="http://www.w3.org/2000/svg" viewBox="0 0 708.7 713">
  <!-- Generator: Adobe Illustrator 29.2.1, SVG Export Plug-In . SVG Version: 2.1.0 Build 116)  -->
  <defs>
    <style>
      .st0 {
        fill: #ffd60a;
      }

      .st0, .st1, .st2, .st3, .st4, .st5, .st6 {
        isolation: isolate;
      }

      .st1 {
        fill: #2563eb;
      }

      .st2 {
        fill: #dc2626;
      }

      .st3 {
        fill: #16a34a;
      }

      .st4 {
        fill: #f97316;
      }

      .st5 {
        fill: #4c1d95;
      }

      .st6 {
        fill: #ec4899;
      }
    </style>
  </defs>
  <g id="svg8" inkscape:export-xdpi="95" inkscape:export-ydpi="95" inkscape:version="1.0.2-2 (e86c870879, 2021-01-15)" sodipodi:docname="Leerbox_Ropen.svg">
    <sodipodi:namedview id="base" bordercolor="#666666" borderopacity="1.0" inkscape:current-layer="layer1" inkscape:cx="502.98416" inkscape:cy="762.1422" inkscape:document-rotation="0" inkscape:document-units="mm" inkscape:pageopacity="0.0" inkscape:pageshadow="2" inkscape:window-height="981" inkscape:window-maximized="0" inkscape:window-width="1701" inkscape:window-x="64" inkscape:window-y="0" inkscape:zoom="0.35" pagecolor="#ffffff" showgrid="false"/>
    <g id="layer1" inkscape:groupmode="layer" inkscape:label="Laag 1">
      <path id="rect850" class="st2" d="M0,0v425.2l88.6,71v-57.5l-44.3-38.2V37.3L0,0Z" sodipodi:nodetypes="ccccccc"/>
      <path id="rect850-2" class="st4" d="M88.6,73.3v422.9l46.6,37.2,42,33.6v-56.4l-44.3-38.2v-119.9l44.3,36v-61.4l-44.3-36v-119.9l44.3,32.6v-60l-88.6-70.6h0Z" sodipodi:nodetypes="cccccccccccccc"/>
      <path id="rect850-9" class="st3" d="M265.7,215.8v60l43.9,34.6v125.1l-43.9-36.5v61.8l44,212.2,44.5,35.6-44.6-215.2,44.6,36v-245.9l-44.3-33.4-44.3-34.3h0Z" sodipodi:nodetypes="ccccccccccccc"/>
      <path id="rect850-2-6" class="st0" d="M177.2,143.9v423.2l46.4,37.1,42.2,33.7v-55.2l-44.3-38.2v-119.9l44.3,36v-61.4l-44.3-36v-119.9l44.3,32.6v-60l-88.6-71.9h0Z" sodipodi:nodetypes="cccccccccccccc"/>
      <path id="rect995" class="st1" d="M472.4,190.4l-118.1,93v425.2l118.1-93V190.4ZM428.2,288.3v120.1l-29.5,24.1v-122.6l29.5-21.6ZM428,470.5v119.9l-29.4,25.5.3-121.9,29.1-23.5h0Z" sodipodi:nodetypes="ccccccccccccccc"/>
      <path id="rect995-7" class="st5" d="M590.6,94.4l-118.1,96v425.2l118.1-94.5V94.4ZM546.3,192.3v300.5l-29.5,25.5V214l29.5-21.6h0Z" sodipodi:nodetypes="cccccccccc"/>
      <path id="rect995-7-1" class="st6" d="M590.6,94.4l45.1-33.8,14.3,173,14.3-195L708.7,0v60.2l-14.3,184,14.3,122.3v58.7l-44.5,39.1-14.3-171.8-14.3,194.6-45.1,34.1,14.3-230.4-14.3-196.3h0Z" sodipodi:nodetypes="ccccccccccccccc"/>
    </g>
  </g>
</svg>